# xmcd CD database file
#
# Track frame offsets:
#	182
#	12642
#	24107
#	35235
#	48435
#	61850
#	74897
#	86597
#	99760
#	113177
#	127150
#	140995
#	152940
#	165535
#	178535
#	192050
#	203405
#	215077
#	227450
#	239737
#	252777
#	264812
#
# Disc length: 3711 seconds
#
# Revision: 0
# Processed by: cddbd v1.5.1PL0 Copyright (c) Steve Scherf et al.
# Submitted via: CDex 1.51
#
DISCID=3a0e7d16
DTITLE=Duke Ellington and His Orchestra - 1939-1940
DYEAR=1939
DGENRE=Jazz
TTITLE0=WM-1100-A:(C39-40)Blues
TTITLE1=WM-1105-A:(C39-40)Early Mornin'
TTITLE2=WM-1106-A:(C39-40)Killin' Myself
TTITLE3=WM-1107-A:(C39-40)Your Love Has Faded
TTITLE4=WM-1108-A:(C39-40)Country Gal
TTITLE5=WM-1117-A:(C39-40)Minuet In Blues
TTITLE6=WM-1118-A:(C39-40)Lost In Two Flats
TTITLE7=WM-1119-A:(C39-40)Honey Hush
TTITLE8=WM-1120-A:(C39-40)Blues
TTITLE9=WM-1121-A:(C39-40)Plucked Again
TTITLE10=WM-1135-A:(C39-40)Solitude
TTITLE11=WM-1136-A:(C39-40)Stormy Weather
TTITLE12=WM-1137-A:(C39-40)Mood Indigo
TTITLE13=WM-1138-A:(C39-40)Sophisticated Lady
TTITLE14=WM-1139-1:(C39-40)Pelican Drag
TTITLE15=WM-1140-1:(C39-40)Tapioca
TTITLE16=WM-1141-A:(C39-40)Mardi Gras Madness
TTITLE17=WM-1142-A:(C39-40)Watch The Birdie
TTITLE18=WM-1143-A:(C39-40)Black Butterfly
TTITLE19=WM-1144-A:(C39-40)Dry Long So
TTITLE20=WM-1145-A:(C39-40)Toasted Pickle
TTITLE21=WM-1146-A:(C39-40)Give It Up
EXTD=YEAR: 1939
EXTT0=
EXTT1=
EXTT2=
EXTT3=
EXTT4=
EXTT5=
EXTT6=
EXTT7=
EXTT8=
EXTT9=
EXTT10=
EXTT11=
EXTT12=
EXTT13=
EXTT14=
EXTT15=
EXTT16=
EXTT17=
EXTT18=
EXTT19=
EXTT20=
EXTT21=
PLAYORDER=
